<?xml version="1.0" standalone="no"?>
<!DOCTYPE svg PUBLIC "-//W3C//DTD SVG 20010904//EN"
 "http://www.w3.org/TR/2001/REC-SVG-20010904/DTD/svg10.dtd">
<svg version="1.0" xmlns="http://www.w3.org/2000/svg"
 width="1306.000000pt" height="825.000000pt" viewBox="0 0 1306.000000 825.000000"
 preserveAspectRatio="xMidYMid meet">
<metadata>
Created by potrace 1.16, written by Peter Selinger 2001-2019
</metadata>
<g transform="translate(0.000000,825.000000) scale(0.100000,-0.100000)"
fill="#000000" stroke="none">
<path d="M0 4125 l0 -4125 6530 0 6530 0 0 4125 0 4125 -6530 0 -6530 0 0
-4125z m8256 2729 c18 -9 44 -33 56 -53 l23 -36 0 -1080 c0 -1062 0 -1081 -20
-1114 -11 -19 -33 -43 -48 -55 l-28 -21 -1794 0 -1794 0 -27 21 c-15 11 -37
33 -48 48 -21 27 -21 32 -21 1109 0 886 2 1088 14 1114 12 29 42 57 81 75 8 4
815 7 1793 7 1614 1 1782 0 1813 -15z m42 -2436 c23 -13 174 -144 336 -293
l295 -270 0 -80 c1 -63 -3 -87 -19 -113 -41 -67 150 -62 -2472 -62 -2314 0
-2384 1 -2414 19 -45 28 -64 76 -63 163 l0 73 293 268 c313 287 316 289 361
305 21 7 584 11 1836 11 l1806 1 41 -22z m-6478 -1873 l0 -55 -175 0 -175 0 0
55 0 55 175 0 175 0 0 -55z m415 -242 c32 -164 61 -308 63 -321 4 -22 2 -23
-54 -20 l-59 3 -13 60 c-8 33 -15 66 -18 73 -2 9 -36 12 -124 12 -111 0 -121
2 -116 18 3 9 23 112 46 227 23 116 43 218 46 228 5 14 18 17 87 17 l82 0 60
-297z m316 170 l0 -128 65 128 64 127 60 0 c33 0 60 -2 60 -5 0 -3 -34 -74
-76 -158 l-76 -152 76 -153 c42 -83 76 -156 76 -162 0 -6 -26 -10 -60 -10
l-60 0 -64 128 -65 127 0 -127 -1 -128 -60 0 -60 0 0 320 0 320 60 0 60 0 1
-127z m679 72 l0 -55 -95 0 -96 0 3 -72 3 -73 83 -3 82 -3 0 -54 0 -55 -140 0
-140 0 0 185 0 185 150 0 150 0 0 -55z m593 -148 l67 -203 0 -117 0 -118 -57
3 -58 3 -6 135 c-5 131 -7 139 -56 275 -29 77 -58 159 -67 183 l-15 42 62 0
62 0 68 -203z m207 197 c0 -16 -115 -324 -121 -324 -20 0 -11 47 28 155 50
137 51 148 21 143 -17 -2 -27 -20 -52 -96 -17 -51 -35 -90 -39 -86 -13 13 -8
46 20 131 l27 83 58 0 c32 0 58 -3 58 -6z m441 -26 l39 -31 0 -253 0 -253 -44
-35 -43 -36 -102 0 -103 0 -44 36 -44 36 0 209 c0 202 1 209 20 209 19 0 20
-7 20 -204 l0 -205 26 -20 c23 -18 41 -21 124 -21 83 0 101 3 124 21 l26 20 0
244 0 244 -29 20 c-41 29 -204 30 -238 2 -13 -11 -23 -22 -23 -25 0 -3 53 -7
118 -8 l117 -3 0 -230 0 -230 -95 0 -95 0 -3 198 c-2 170 0 197 13 197 12 0
15 -28 17 -182 l3 -183 65 0 65 0 0 200 0 200 -127 3 c-121 2 -128 4 -128 23
0 11 17 36 38 54 l37 35 113 0 c112 0 114 0 153 -32z m299 -208 c0 -207 -2
-240 -15 -240 -13 0 -15 32 -15 225 l0 225 -25 0 -25 0 0 -225 c0 -193 -2
-225 -15 -225 -13 0 -15 33 -15 240 l0 240 55 0 55 0 0 -240z m260 -44 l0
-284 -44 -36 -44 -36 -102 0 c-100 0 -102 1 -140 33 -28 23 -40 40 -40 59 l0
27 123 3 122 3 3 258 2 257 60 0 60 0 0 -284z m740 229 l0 -55 -175 0 -175 0
0 55 0 55 175 0 175 0 0 -55z m447 23 l33 -32 0 -253 0 -253 -37 -35 -38 -34
-107 -1 -108 0 -40 36 -40 36 0 209 c0 202 1 209 20 209 19 0 20 -7 20 -202 0
-256 -5 -248 144 -248 92 1 103 3 129 25 l27 24 0 232 0 233 -27 28 c-26 27
-30 28 -127 28 -78 0 -103 -3 -118 -17 -10 -9 -18 -20 -18 -25 0 -4 48 -8 108
-8 59 0 113 -4 120 -8 9 -7 12 -60 10 -233 l-3 -224 -88 -3 c-57 -2 -94 1
-103 9 -11 9 -14 51 -14 200 0 182 1 189 20 189 19 0 20 -7 20 -185 l0 -186
68 3 67 3 3 180 c1 99 0 190 -3 203 -5 21 -9 22 -130 22 l-125 0 0 24 c0 15
13 36 35 55 36 31 36 31 152 31 l117 0 33 -32z m783 0 c36 -30 40 -38 40 -80
l0 -48 -59 0 c-54 0 -60 2 -63 23 -3 21 -7 22 -125 25 -122 3 -123 3 -123 26
0 15 14 36 35 55 35 31 37 31 146 31 110 0 111 0 149 -32z m501 0 l39 -31 0
-253 0 -253 -44 -35 -43 -36 -102 0 -103 0 -44 36 -44 36 0 209 c0 202 1 209
20 209 19 0 20 -7 20 -204 l0 -205 26 -20 c23 -18 41 -21 124 -21 83 0 101 3
124 21 l26 20 0 244 0 244 -29 20 c-41 29 -204 30 -238 2 -13 -11 -23 -22 -23
-25 0 -3 53 -7 118 -8 l117 -3 0 -230 0 -230 -95 0 -95 0 -3 198 c-2 170 0
197 13 197 12 0 15 -28 17 -182 l3 -183 65 0 65 0 0 200 0 200 -127 3 c-121 2
-128 4 -128 23 0 11 17 36 38 54 l37 35 113 0 c112 0 114 0 153 -32z m509 0
l40 -33 0 -113 0 -113 -40 -36 c-22 -20 -40 -42 -40 -48 0 -7 20 -63 45 -126
25 -63 45 -120 45 -126 0 -9 -18 -13 -59 -13 l-59 0 -52 135 -53 135 -73 0
-74 0 0 185 0 185 141 0 140 0 39 -32z m511 0 l39 -31 0 -118 0 -118 -44 -35
-43 -36 -137 0 -136 0 0 185 0 185 141 0 140 0 40 -32z m500 1 l39 -31 0 -253
0 -253 -42 -36 -42 -36 -103 0 c-103 0 -105 0 -143 33 l-40 32 0 213 c0 182 2
212 15 212 13 0 15 -29 15 -204 l0 -205 29 -20 c25 -18 44 -21 127 -21 87 0
100 2 121 22 23 21 23 24 23 262 0 300 7 286 -145 286 -95 0 -103 -2 -125 -25
l-23 -25 114 0 c76 0 119 -4 127 -12 19 -19 17 -432 -2 -447 -9 -8 -46 -11
-103 -9 l-88 3 -3 198 c-2 170 0 197 13 197 12 0 15 -28 17 -182 l3 -183 65 0
65 0 0 200 0 200 -122 3 -123 3 0 24 c0 16 12 37 33 55 31 29 34 29 146 30
112 0 114 0 152 -31z m510 0 l39 -31 0 -118 0 -119 -40 -32 c-22 -18 -40 -37
-40 -44 0 -6 20 -61 45 -123 25 -61 45 -119 45 -127 0 -19 -103 -22 -117 -2
-5 6 -31 67 -57 135 l-48 122 -74 0 -74 0 0 185 0 185 141 0 141 0 39 -31z
m506 -284 c34 -170 62 -313 63 -317 0 -5 -27 -8 -59 -8 l-60 0 -11 58 c-20
101 -6 92 -142 92 -119 0 -120 0 -116 23 2 12 24 122 48 245 l45 223 84 -3 85
-3 63 -310z m463 260 l0 -55 -180 0 -180 0 0 55 0 55 180 0 180 0 0 -55z m410
0 l0 -55 -95 0 -95 0 0 -75 0 -75 80 0 80 0 0 -55 0 -55 -135 0 -135 0 0 185
0 185 150 0 150 0 0 -55z m473 24 c34 -28 37 -35 37 -80 l0 -49 -59 0 c-54 0
-60 2 -63 23 -3 20 -9 22 -58 22 l-55 0 0 -70 0 -70 79 -3 c71 -3 83 -6 118
-33 25 -21 38 -39 38 -55 l0 -24 -141 0 -140 0 -40 32 -39 31 0 123 0 122 38
31 c36 29 40 30 142 31 103 0 106 -1 143 -31z m-9763 -344 l0 -225 25 0 25 0
0 225 c0 219 1 225 20 225 20 0 20 -5 18 -242 l-3 -243 -57 -3 -58 -3 0 246
c0 211 2 245 15 245 13 0 15 -32 15 -225z m3950 0 l0 -225 25 0 25 0 0 225 c0
219 1 225 20 225 20 0 20 -5 18 -242 l-3 -243 -57 -3 -58 -3 0 246 c0 211 2
245 15 245 13 0 15 -32 15 -225z m1140 23 c0 -255 -4 -248 140 -248 83 0 101
3 124 21 33 26 37 79 7 79 -12 0 -25 -11 -33 -27 -12 -26 -18 -28 -87 -31
-113 -5 -111 -9 -111 220 0 181 1 188 20 188 19 0 20 -7 20 -185 l0 -186 63 3
c56 3 62 5 65 26 3 20 9 22 63 22 l59 0 0 -49 c0 -46 -3 -52 -44 -85 l-43 -36
-102 0 -101 0 -40 36 -40 36 0 209 c0 202 1 209 20 209 19 0 20 -7 20 -202z
m3590 -23 c0 -218 1 -225 20 -225 19 0 20 7 20 225 0 218 1 225 20 225 19 0
20 -7 20 -245 l0 -246 -57 3 -58 3 -3 243 c-2 237 -2 242 18 242 19 0 20 -6
20 -225z m-7340 -130 l0 -95 120 0 120 0 0 25 c0 25 0 25 -95 25 l-95 0 0 70
c0 54 3 70 14 70 11 0 16 -15 18 -52 l3 -53 98 -3 98 -3 -3 -57 -3 -57 -152
-3 -153 -3 0 116 c0 96 3 115 15 115 12 0 15 -17 15 -95z m4760 0 c0 -95 0
-95 25 -95 25 0 25 0 25 95 0 78 3 95 15 95 12 0 15 -19 15 -115 l0 -115 -55
0 -55 0 0 115 c0 96 3 115 15 115 12 0 15 -17 15 -95z m510 0 c0 -95 0 -95 25
-95 25 0 25 0 25 95 0 78 3 95 15 95 12 0 15 -19 15 -115 l0 -115 -55 0 -55 0
0 115 c0 96 3 115 15 115 12 0 15 -17 15 -95z m1010 0 c0 -95 0 -95 25 -95 25
0 25 0 25 95 0 78 3 95 15 95 12 0 15 -19 15 -115 l0 -115 -55 0 -55 0 0 115
c0 96 3 115 15 115 12 0 15 -17 15 -95z m1400 0 l0 -95 120 0 120 0 0 25 c0
25 0 25 -95 25 l-95 0 0 70 c0 56 3 70 15 70 12 0 15 -13 15 -55 l0 -55 95 0
95 0 0 -60 0 -60 -150 0 -150 0 0 115 c0 96 3 115 15 115 12 0 15 -17 15 -95z
m698 34 c4 -74 -5 -81 -105 -77 -70 3 -79 5 -88 26 -5 12 -18 22 -27 22 -26 0
-23 -48 4 -77 20 -21 30 -23 118 -23 124 0 138 11 142 115 2 57 6 70 21 73 15
3 17 -6 17 -76 l0 -80 -40 -36 -40 -36 -96 0 c-95 0 -96 0 -140 36 -41 34 -44
40 -44 85 l0 49 59 0 c54 0 60 -2 63 -22 3 -21 9 -23 58 -23 l55 0 3 53 c3 44
6 53 20 50 13 -2 18 -16 20 -59z m82 -889 l0 -120 -4975 0 -4975 0 0 120 0
120 4975 0 4975 0 0 -120z"/>
<path d="M4750 5680 l0 -990 1695 0 1695 0 0 990 0 990 -1695 0 -1695 0 0
-990z"/>
<path d="M5767 4033 c-13 -21 -36 -57 -51 -80 l-26 -43 750 0 c412 0 750 3
750 8 0 4 -20 39 -43 77 l-44 70 -656 3 -657 2 -23 -37z"/>
<path d="M6100 3807 c0 -18 5 -38 12 -45 9 -9 97 -12 335 -12 308 0 323 1 333
19 5 11 10 31 10 45 l0 26 -345 0 -345 0 0 -33z"/>
<path d="M2035 2558 c-12 -36 -81 -408 -77 -413 3 -3 56 -5 117 -5 l112 0 12
-70 c12 -64 15 -70 37 -70 20 0 23 4 18 28 -3 15 -29 142 -57 282 l-52 255
-53 3 c-36 2 -54 -1 -57 -10z m75 -41 c0 -2 14 -71 30 -152 17 -81 30 -154 30
-162 0 -10 -20 -13 -81 -13 -73 0 -81 2 -77 18 3 9 18 83 33 165 25 124 32
147 47 147 10 0 18 -2 18 -3z"/>
<path d="M2470 2285 c0 -278 0 -285 20 -285 20 0 20 7 20 285 0 278 0 285 -20
285 -20 0 -20 -7 -20 -285z"/>
<path d="M2630 2429 l-71 -140 70 -145 c63 -130 72 -144 95 -144 26 0 26 1
-44 140 l-70 140 70 140 c38 77 70 142 70 145 0 3 -11 5 -25 5 -22 0 -33 -16
-95 -141z"/>
<path d="M2962 2418 l3 -153 103 -3 102 -3 0 26 c0 25 -1 25 -80 25 l-80 0 0
105 0 104 93 3 c87 3 92 4 95 26 3 22 2 22 -118 22 l-121 0 3 -152z"/>
<path d="M3696 2528 c115 -320 114 -315 114 -425 l0 -103 25 0 c25 0 25 1 25
82 0 75 -6 101 -67 285 -61 183 -70 203 -90 203 -22 0 -22 -1 -7 -42z"/>
<path d="M4938 2313 l-3 -258 -117 -3 c-65 -1 -118 -7 -118 -12 0 -5 10 -16
22 -24 17 -12 48 -16 119 -16 82 0 100 3 123 21 l26 20 0 265 0 264 -25 0 -25
0 -2 -257z"/>
<path d="M7720 2415 l0 -155 73 0 74 0 49 -130 c43 -115 52 -130 72 -130 27 0
28 -7 -28 135 l-39 100 45 40 44 40 0 107 c0 106 0 107 -29 127 -25 18 -44 21
-145 21 l-116 0 0 -155z m238 12 c2 -57 -1 -94 -9 -103 -8 -10 -36 -14 -95
-14 l-84 0 0 105 0 106 93 -3 92 -3 3 -88z"/>
<path d="M7802 2418 l3 -73 51 -3 c65 -4 76 9 72 85 l-3 58 -63 3 -63 3 3 -73z"/>
<path d="M8230 2415 l0 -155 118 0 c117 0 119 0 145 28 26 27 27 33 27 134 0
106 0 107 -29 127 -25 18 -44 21 -145 21 l-116 0 0 -155z m238 12 c2 -57 -1
-94 -9 -103 -8 -10 -36 -14 -95 -14 l-84 0 0 105 0 106 93 -3 92 -3 3 -88z"/>
<path d="M8312 2418 l3 -73 51 -3 c65 -4 76 9 72 85 l-3 58 -63 3 -63 3 3 -73z"/>
<path d="M9240 2415 l0 -155 74 0 73 0 50 -127 c40 -105 53 -129 71 -131 12
-2 22 0 22 4 0 4 -18 54 -40 110 -22 56 -40 108 -40 115 0 7 18 27 40 46 l40
35 0 108 c0 105 -1 109 -26 129 -24 19 -40 21 -145 21 l-119 0 0 -155z m238
93 c7 -7 12 -42 12 -87 0 -103 -9 -111 -117 -111 l-83 0 0 105 0 105 88 0 c55
0 92 -4 100 -12z"/>
<path d="M9322 2418 l3 -73 51 -3 c65 -4 76 9 72 85 l-3 58 -63 3 -63 3 3 -73z"/>
<path d="M9791 2363 c-22 -115 -41 -211 -41 -215 0 -5 51 -8 114 -8 126 0 117
5 131 -70 4 -19 9 -43 11 -52 6 -21 44 -25 44 -5 0 12 -92 479 -105 535 -5 19
-12 22 -59 22 l-53 0 -42 -207z m144 10 c15 -82 30 -156 33 -165 4 -16 -4 -18
-77 -18 -44 0 -81 3 -81 8 0 4 14 78 31 165 26 127 35 157 48 157 14 0 22 -29
46 -147z"/>
<path d="M10640 2415 l0 -155 105 0 105 0 0 25 c0 25 -1 25 -80 25 l-80 0 0
105 0 104 93 3 c84 3 92 5 92 23 0 19 -8 20 -117 23 l-118 3 0 -156z"/>
<path d="M11128 2549 c-28 -20 -28 -22 -28 -134 l0 -114 29 -20 c25 -18 44
-21 135 -21 60 0 106 4 106 9 0 26 -47 41 -125 41 -50 0 -86 5 -93 12 -16 16
-16 170 0 186 7 7 43 12 90 12 67 0 80 -3 90 -20 7 -11 21 -20 30 -20 26 0 23
42 -5 68 -20 19 -34 22 -113 22 -74 -1 -94 -4 -116 -21z"/>
</g>
</svg>
